<svg t="1710127508170" class="icon" viewBox="0 0 1024 1024" version="1.1" xmlns="http://www.w3.org/2000/svg" p-id="1060" width="200" height="200"><path d="M971.111442 128.178311 52.888558 128.178311c-11.307533 0-20.466124 9.15859-20.466124 20.466124l0 612.141768c0 11.307533 9.15859 20.466124 20.466124 20.466124l918.222885 0c11.2973 0 20.466124-9.15859 20.466124-20.466124l0-612.141768C991.577566 137.336902 982.408743 128.178311 971.111442 128.178311zM950.645318 740.320079 73.354682 740.320079l0-571.20952 877.290637 0L950.645318 740.320079z" p-id="1061"></path><path d="M787.520077 842.415338c0 11.2973-9.15859 20.466124-20.466124 20.466124l-510.11814 0c-11.307533 0-20.466124-9.168824-20.466124-20.466124 0-11.307533 9.15859-20.466124 20.466124-20.466124l510.11814 0C778.361487 821.949214 787.520077 831.107805 787.520077 842.415338z" p-id="1062"></path></svg>