<svg t="1710127439526" class="icon" viewBox="0 0 1024 1024" version="1.1" xmlns="http://www.w3.org/2000/svg" p-id="918" width="200" height="200"><path d="M823.00322 24.512277l-591.737042 0c-11.307533 0-20.466124 9.15859-20.466124 20.466124l0 934.043199c0 11.2973 9.15859 20.466124 20.466124 20.466124l591.737042 0c11.307533 0 20.466124-9.168824 20.466124-20.466124L843.469344 44.978401C843.469344 33.670867 834.310753 24.512277 823.00322 24.512277zM802.537096 773.96127l-480.135268 0c-11.307533 0-20.466124 9.168824-20.466124 20.466124 0 11.307533 9.15859 20.466124 20.466124 20.466124l480.135268 0 0 143.661957-550.804794 0L251.732301 65.444525l550.804794 0L802.537096 773.96127z" p-id="919"></path><path d="M527.134699 886.514719m-48.461735 0a47.358 47.358 0 1 0 96.92347 0 47.358 47.358 0 1 0-96.92347 0Z" p-id="920"></path></svg>