<svg xmlns="http://www.w3.org/2000/svg" height="48" viewBox="0 -960 960 960" width="48"><path fill="white" d="M216.929-142q-31.416 0-53.172-21.757Q142-185.513 142-216.929q0-31.416 21.757-53.244Q185.513-292 216.929-292q31.416 0 53.244 21.827Q292-248.345 292-216.929t-21.827 53.172Q248.345-142 216.929-142Zm0-263q-31.416 0-53.172-22.119Q142-449.239 142-479.619 142-510 163.757-532.5q21.756-22.5 53.172-22.5 31.416 0 53.244 22.119Q292-510.761 292-480.381 292-450 270.173-427.5 248.345-405 216.929-405Zm0-263q-31.416 0-53.172-21.827Q142-711.655 142-743.071t21.757-53.172Q185.513-818 216.929-818q31.416 0 53.244 21.757Q292-774.487 292-743.071q0 31.416-21.827 53.244Q248.345-668 216.929-668Zm263.452 0Q450-668 427.5-689.827 405-711.655 405-743.071t22.119-53.172Q449.239-818 479.619-818 510-818 532.5-796.243q22.5 21.756 22.5 53.172 0 31.416-22.119 53.244Q510.761-668 480.381-668Zm262.69 0q-31.416 0-53.244-21.827Q668-711.655 668-743.071t21.827-53.172Q711.655-818 743.071-818t53.172 21.757Q818-774.487 818-743.071q0 31.416-21.757 53.244Q774.487-668 743.071-668ZM480.292-405Q450-405 427.5-427.208t-22.5-52.5Q405-510 427.208-532.5t52.5-22.5Q510-555 532.5-532.792t22.5 52.5Q555-450 532.792-427.5t-52.5 22.5ZM515-142v-142l225-223q10-12.235 23.667-17.118Q777.333-529 792-529q14 0 27.629 5.5Q833.258-518 844-506l37 37q9.935 11.171 15.467 23.825Q902-432.522 902-418.868q0 14.986-5.765 28.427Q890.471-377 880.09-365L657-142H515Zm314-277-37-37 37 37ZM589-216h38l118-118.767-18-19.12L708-372 589-254.239V-216Zm138-138-19-18 37 37-18-19Z"/></svg>