<svg xmlns="http://www.w3.org/2000/svg" height="48" viewBox="0 -960 960 960" width="48"><path fill="white" d="M226-180q-18.5 0-32.25-13.75T180-226q0-18.5 13.75-32.25T226-272q18.5 0 32.25 13.75T272-226q0 18.5-13.75 32.25T226-180Zm0-254q-18.5 0-32.25-13.75T180-480q0-18.5 13.75-32.25T226-526q18.5 0 32.25 13.75T272-480q0 18.5-13.75 32.25T226-434Zm0-254q-18.5 0-32.25-13.75T180-734q0-18.5 13.75-32.25T226-780q18.5 0 32.25 13.75T272-734q0 18.5-13.75 32.25T226-688Zm254 0q-18.5 0-32.25-13.75T434-734q0-18.5 13.75-32.25T480-780q18.5 0 32.25 13.75T526-734q0 18.5-13.75 32.25T480-688Zm254 0q-18.5 0-32.25-13.75T688-734q0-18.5 13.75-32.25T734-780q18.5 0 32.25 13.75T780-734q0 18.5-13.75 32.25T734-688ZM480.159-434q-18.659 0-32.409-13.591-13.75-13.59-13.75-32.25 0-18.659 13.591-32.409 13.59-13.75 32.25-13.75 18.659 0 32.409 13.591 13.75 13.59 13.75 32.25 0 18.659-13.591 32.409-13.59 13.75-32.25 13.75ZM535-180v-87l213-212q6-6.059 12.111-8.029Q766.222-489 772.333-489q6.667 0 13.07 2 6.403 2 11.597 7l37 39q5 6 7.5 11.75t2.5 12.5q0 6.75-2.971 12.828-2.97 6.078-6.939 11.922L622-180h-87Zm275-237-37-38 37 38ZM570-215h38l144-144-19-19-18-20-145 145v38Zm163-163-18-20 37 39-19-19Z"/></svg>